# xmcd
#
# Track frame offsets:
#	200
#	23422
#	37562
#	56675
#	72632
#	99755
#	114552
#	143797
#	158845
#
# Disc length: 2508 seconds
#
# Revision: 0
# Processed by: cddbd v1.5.1PL2 Copyright (c) Steve Scherf et al.
# Submitted via: dBpowerAMP V4.0
#
DISCID=6809ca09
DTITLE=Chris Tofield - Chris Tofield
DYEAR=1995
DGENRE=Blues
TTITLE0=Live and Learn
TTITLE1=D.U.I. of Love
TTITLE2=The Naked City
TTITLE3=I'd Rather Be Strange
TTITLE4=Drinkin' My Blues Away
TTITLE5=Time For a Change
TTITLE6=Chase Your Rainbows
TTITLE7=No Money in the Bank
TTITLE8=Playin' the Blues Somewhere
EXTD=
EXTT0=
EXTT1=
EXTT2=
EXTT3=
EXTT4=
EXTT5=
EXTT6=
EXTT7=
EXTT8=
PLAYORDER=
